HIERARCHY
ROOT Hips
{
    OFFSET   0.000000   0.000000   0.000000
    CHANNELS 6 Xposition Yposition Zposition Zrotation Xrotation Yrotation
    JOINT Chest
    {
        OFFSET   0.000000   8.007230   0.000000
        CHANNELS 3 Zrotation Xrotation Yrotation
        JOINT Chest2
        {
            OFFSET   0.000000  22.077100   0.000000
            CHANNELS 3 Zrotation Xrotation Yrotation
            JOINT Neck
            {
                OFFSET   0.000000  23.254800   0.000000
                CHANNELS 3 Zrotation Xrotation Yrotation
                JOINT Head
                {
                    OFFSET   0.000010  14.370000   1.956600
                    CHANNELS 3 Zrotation Xrotation Yrotation
                    End Site
                    {
                        OFFSET   0.000000  19.566000   0.000000
                    }
                }
            }
            JOINT LeftCollar
            {
                OFFSET   3.911900  19.017000  -0.467062
                CHANNELS 3 Zrotation Xrotation Yrotation
                JOINT LeftShoulder
                {
                    OFFSET  10.383700   0.000000   0.000000
                    CHANNELS 3 Zrotation Xrotation Yrotation
                    JOINT LeftElbow
                    {
                        OFFSET  26.662100   0.001193   0.000835
                        CHANNELS 3 Zrotation Xrotation Yrotation
                        JOINT LeftWrist
                        {
                            OFFSET  28.869000  -0.000058  -0.000075
                            CHANNELS 3 Zrotation Xrotation Yrotation
                            JOINT LeftFinger0
                            {
                                OFFSET   2.044660  -2.323460   3.252850
                                CHANNELS 3 Zrotation Xrotation Yrotation
                                JOINT LeftFinger01
                                {
                                    OFFSET   3.088130   0.000000   0.000000
                                    CHANNELS 3 Zrotation Xrotation Yrotation
                                    JOINT LeftFinger02
                                    {
                                        OFFSET   2.639450   0.000000   0.000000
                                        CHANNELS 3 Zrotation Xrotation Yrotation
                                        End Site
                                        {
                                            OFFSET   2.582190   0.000000   0.000000
                                        }
                                    }
                                }
                            }
                            JOINT LeftFinger1
                            {
                                OFFSET   8.364480   0.000000   3.252850
                                CHANNELS 3 Zrotation Xrotation Yrotation
                                JOINT LeftFinger11
                                {
                                    OFFSET   4.646920   0.000000   0.000000
                                    CHANNELS 3 Zrotation Xrotation Yrotation
                                    JOINT LeftFinger12
                                    {
                                        OFFSET   2.323460   0.000000   0.000000
                                        CHANNELS 3 Zrotation Xrotation Yrotation
                                        End Site
                                        {
                                            OFFSET   2.273050   0.000000   0.000000
                                        }
                                    }
                                }
                            }
                            JOINT LeftFinger2
                            {
                                OFFSET   8.364490   0.000016   1.078090
                                CHANNELS 3 Zrotation Xrotation Yrotation
                                JOINT LeftFinger21
                                {
                                    OFFSET   5.111620   0.000000   0.000000
                                    CHANNELS 3 Zrotation Xrotation Yrotation
                                    JOINT LeftFinger22
                                    {
                                        OFFSET   2.788150   0.000012   0.000000
                                        CHANNELS 3 Zrotation Xrotation Yrotation
                                        End Site
                                        {
                                            OFFSET   2.727660   0.000000   0.000000
                                        }
                                    }
                                }
                            }
                            JOINT LeftFinger3
                            {
                                OFFSET   7.899780   0.000014  -1.078090
                                CHANNELS 3 Zrotation Xrotation Yrotation
                                JOINT LeftFinger31
                                {
                                    OFFSET   4.646930   0.000000   0.000000
                                    CHANNELS 3 Zrotation Xrotation Yrotation
                                    JOINT LeftFinger32
                                    {
                                        OFFSET   2.323470   0.000000   0.000000
                                        CHANNELS 3 Zrotation Xrotation Yrotation
                                        End Site
                                        {
                                            OFFSET   2.273050   0.000000   0.000000
                                        }
                                    }
                                }
                            }
                            JOINT LeftFinger4
                            {
                                OFFSET   7.435090   0.000000  -3.252850
                                CHANNELS 3 Zrotation Xrotation Yrotation
                                JOINT LeftFinger41
                                {
                                    OFFSET   3.717550   0.000000   0.000000
                                    CHANNELS 3 Zrotation Xrotation Yrotation
                                    JOINT LeftFinger42
                                    {
                                        OFFSET   1.858770   0.000000   0.000000
                                        CHANNELS 3 Zrotation Xrotation Yrotation
                                        End Site
                                        {
                                            OFFSET   1.818440   0.000000   0.000000
                                        }
                                    }
                                }
                            }
                        }
                    }
                }
            }
            JOINT RightCollar
            {
                OFFSET  -3.911900  19.017000  -0.467063
                CHANNELS 3 Zrotation Xrotation Yrotation
                JOINT RightShoulder
                {
                    OFFSET -10.383700   0.000023   0.000000
                    CHANNELS 3 Zrotation Xrotation Yrotation
                    JOINT RightElbow
                    {
                        OFFSET -26.662100   0.001246   0.001011
                        CHANNELS 3 Zrotation Xrotation Yrotation
                        JOINT RightWrist
                        {
                            OFFSET -28.869000  -0.000026  -0.000078
                            CHANNELS 3 Zrotation Xrotation Yrotation
                            JOINT RightFinger0
                            {
                                OFFSET  -2.044660  -2.323490   3.252850
                                CHANNELS 3 Zrotation Xrotation Yrotation
                                JOINT RightFinger01
                                {
                                    OFFSET  -3.088130   0.000000   0.000000
                                    CHANNELS 3 Zrotation Xrotation Yrotation
                                    JOINT RightFinger02
                                    {
                                        OFFSET  -2.639460   0.000000   0.000000
                                        CHANNELS 3 Zrotation Xrotation Yrotation
                                        End Site
                                        {
                                            OFFSET  -2.582190   0.000000   0.000000
                                        }
                                    }
                                }
                            }
                            JOINT RightFinger1
                            {
                                OFFSET  -8.364480   0.000000   3.252850
                                CHANNELS 3 Zrotation Xrotation Yrotation
                                JOINT RightFinger11
                                {
                                    OFFSET  -4.646920   0.000000   0.000000
                                    CHANNELS 3 Zrotation Xrotation Yrotation
                                    JOINT RightFinger12
                                    {
                                        OFFSET  -2.323470   0.000000   0.000000
                                        CHANNELS 3 Zrotation Xrotation Yrotation
                                        End Site
                                        {
                                            OFFSET  -2.273050   0.000000   0.000000
                                        }
                                    }
                                }
                            }
                            JOINT RightFinger2
                            {
                                OFFSET  -8.364480   0.000000   1.078090
                                CHANNELS 3 Zrotation Xrotation Yrotation
                                JOINT RightFinger21
                                {
                                    OFFSET  -5.111620   0.000000   0.000000
                                    CHANNELS 3 Zrotation Xrotation Yrotation
                                    JOINT RightFinger22
                                    {
                                        OFFSET  -2.788160   0.000000   0.000000
                                        CHANNELS 3 Zrotation Xrotation Yrotation
                                        End Site
                                        {
                                            OFFSET  -2.727660   0.000000   0.000000
                                        }
                                    }
                                }
                            }
                            JOINT RightFinger3
                            {
                                OFFSET  -7.899780   0.000000  -1.078090
                                CHANNELS 3 Zrotation Xrotation Yrotation
                                JOINT RightFinger31
                                {
                                    OFFSET  -4.646930   0.000000   0.000000
                                    CHANNELS 3 Zrotation Xrotation Yrotation
                                    JOINT RightFinger32
                                    {
                                        OFFSET  -2.323470   0.000000   0.000000
                                        CHANNELS 3 Zrotation Xrotation Yrotation
                                        End Site
                                        {
                                            OFFSET  -2.273050   0.000000   0.000000
                                        }
                                    }
                                }
                            }
                            JOINT RightFinger4
                            {
                                OFFSET  -7.435090   0.000000  -3.252850
                                CHANNELS 3 Zrotation Xrotation Yrotation
                                JOINT RightFinger41
                                {
                                    OFFSET  -3.717550   0.000000   0.000000
                                    CHANNELS 3 Zrotation Xrotation Yrotation
                                    JOINT RightFinger42
                                    {
                                        OFFSET  -1.858760   0.000000   0.000000
                                        CHANNELS 3 Zrotation Xrotation Yrotation
                                        End Site
                                        {
                                            OFFSET  -1.818440   0.000000   0.000000
                                        }
                                    }
                                }
                            }
                        }
                    }
                }
            }
        }
    }
    JOINT LeftHip
    {
        OFFSET   9.783010   0.000000   0.000000
        CHANNELS 3 Zrotation Xrotation Yrotation
        JOINT LeftKnee
        {
            OFFSET   0.000073 -41.789100   0.001749
            CHANNELS 3 Zrotation Xrotation Yrotation
            JOINT LeftAnkle
            {
                OFFSET   0.000111 -41.133200  -0.000179
                CHANNELS 3 Zrotation Xrotation Yrotation
                JOINT LeftToe
                {
                    OFFSET   0.000000  -6.358960  14.674500
                    CHANNELS 3 Zrotation Xrotation Yrotation
                    End Site
                    {
                        OFFSET   0.000000   0.000000   3.913200
                    }
                }
            }
        }
    }
    JOINT RightHip
    {
        OFFSET  -9.783010   0.000000   0.000000
        CHANNELS 3 Zrotation Xrotation Yrotation
        JOINT RightKnee
        {
            OFFSET   0.000424 -41.789200   0.005205
            CHANNELS 3 Zrotation Xrotation Yrotation
            JOINT RightAnkle
            {
                OFFSET   0.000000 -41.133200  -0.000155
                CHANNELS 3 Zrotation Xrotation Yrotation
                JOINT RightToe
                {
                    OFFSET   0.000000  -6.358960  14.674500
                    CHANNELS 3 Zrotation Xrotation Yrotation
                    End Site
                    {
                        OFFSET   0.000000   0.000000   3.913200
                    }
                }
            }
        }
    }
}
MOTION
Frames: 5
Frame Time:   0.016667
 -0.575456  89.500600  -0.657480  -2.385810  -4.321290  -2.803940   0.979093   3.344450   0.328040   1.943950   6.693990   0.600210   1.462010  -0.867558   0.023025   2.403720  -1.755430   7.540840  -6.058430   2.779460  -1.578270 -69.443600  17.875100  -7.154910  -2.893170  -5.521030 -11.992100   4.714620  -7.897860  12.328100  40.753500  27.801100 -65.549900 -21.859400  -0.000264   0.000000  -5.929700   0.013034  -0.001135 -31.263300   8.323420 -13.410800 -26.381000  -0.004399   0.002886 -18.466700   0.000223   0.002989 -28.540900   2.228520  -4.089280 -37.709800  -0.000564   0.002764 -25.114800  -0.001019   0.001627 -28.752300   0.150766  -0.274775 -40.308300  -0.000737   0.005252 -26.845300  -0.001538   0.002696 -36.930500  -0.228364   0.304005 -55.396600  -0.004794   0.002317 -36.894100  -0.008776  -0.000106   7.462830  -0.073317  12.238400  69.785200  16.028200  -0.088966   1.046300  -0.379178   6.885690  -8.449100  -8.491050  -0.824732 -32.430800  35.986100  72.179300  41.528500  -0.000878   0.000866  16.832000   0.001409   0.003235  33.201600   6.121840   9.255400  27.570700   0.001143  -0.000792  19.299500   0.010062  -0.011775  28.639300   1.731640   3.173380  38.657000  -0.005999   0.010141  25.745500  -0.001484   0.005862  32.676300   1.904230   2.965560  49.088400   0.000730  -0.000994  32.692900   0.004043  -0.000832  47.333300  -3.514540  -3.232270  71.149200  -0.001054  -0.001934  47.385300  -0.000782  -0.001056   2.806800   7.438640   1.315800   1.072210   0.402812  -0.045012  -3.344600  -3.368280  10.187500   0.000000   0.000000  -0.000000   0.695094   1.644770  -4.033600   1.220620   6.261610   4.645200  -4.835230  -3.333780   1.585300  -0.000000   0.000000  -0.000000
 -0.575454  89.500500  -0.657414  -2.386020  -4.325980  -2.803300   0.985149   3.344190   0.341589   1.955290   6.693720   0.627021   1.473430  -0.887316   0.023413   2.422420  -1.795600   7.538990  -6.060200   2.768560  -1.547030 -69.474500  17.869700  -7.134000  -2.901030  -5.519660 -12.005100   4.714770  -7.877500  12.320700  40.759500  27.820500 -65.567400 -21.865100  -0.000267  -0.000000  -5.932550   0.013066  -0.001144 -31.262900   8.312570 -13.394500 -26.378700  -0.004414   0.002886 -18.465100   0.000207   0.003004 -28.541700   2.222630  -4.078530 -37.704500  -0.000471   0.002783 -25.111200  -0.000965   0.001662 -28.752300   0.145118  -0.264489 -40.298600  -0.000679   0.005336 -26.838800  -0.001500   0.002837 -36.924400  -0.228364   0.304005 -55.387600  -0.004730   0.002358 -36.888100  -0.008819  -0.000069   7.482710  -0.059721  12.265200  69.792400  16.048300  -0.092211   1.074980  -0.441714   6.782300  -8.451440  -8.487090  -0.825093 -32.455600  36.025000  72.218000  41.524400  -0.000881   0.000859  16.826300   0.001407   0.003230  33.228700   6.128540   9.257360  27.594100   0.001135  -0.000789  19.315900   0.010065  -0.011782  28.639100   1.733070   3.175130  38.718800  -0.005991   0.010138  25.786700  -0.001488   0.005855  32.688600   1.914520   2.980130  49.107600   0.000732  -0.001000  32.705700   0.004037  -0.000836  47.342900  -3.514540  -3.232510  71.163400  -0.001047  -0.001940  47.394800  -0.000783  -0.001056   2.807230   7.433000   1.313830   1.072250   0.424559  -0.045053  -3.344480  -3.379660  10.187500   0.000000   0.000000   0.000000   0.695443   1.660730  -4.031790   1.222370   6.249670   4.636880  -4.834680  -3.333770   1.595530   0.000000   0.000000   0.000000
 -0.575442  89.500500  -0.657348  -2.386150  -4.334850  -2.798740   0.994373   3.343790   0.361380   1.972620   6.693290   0.666163   1.491420  -0.919439   0.023956   2.452080  -1.860810   7.525150  -6.062880   2.752910  -1.499280 -69.522100  17.864600  -7.103500  -2.908880  -5.518300 -12.018100   4.713050  -7.848650  12.313100  40.772600  27.855400 -65.597100 -21.871300  -0.000270   0.000000  -5.935650   0.013133  -0.001158 -31.260000   8.297350 -13.372300 -26.373600  -0.004453   0.002887 -18.461500   0.000163   0.003041 -28.542500   2.216740  -4.067790 -37.693300  -0.000315   0.002815 -25.103800  -0.000875   0.001719 -28.752400   0.139471  -0.254202 -40.280100  -0.000581   0.005490 -26.826500  -0.001438   0.003099 -36.911900  -0.228364   0.304005 -55.368900  -0.004622   0.002425 -36.875700  -0.008910   0.000000   7.517820  -0.046125  12.311100  69.805100  16.081200  -0.100664   1.119820  -0.543611   6.610490  -8.453590  -8.468890  -0.825575 -32.490900  36.078800  72.272800  41.515800  -0.000884   0.000844  16.815500   0.001404   0.003224  33.256100   6.144880   9.270500  27.617600   0.001123  -0.000781  19.332300   0.010068  -0.011795  28.638200   1.742720   3.187420  38.798400  -0.005973   0.010133  25.839700  -0.001495   0.005840  32.707000   1.939090   3.016130  49.137100   0.000739  -0.001015  32.725400   0.004019  -0.000846  47.355700  -3.514540  -3.232750  71.182400  -0.001032  -0.001956  47.407500  -0.000787  -0.001060   2.807830   7.427360   1.310570   1.072290   0.446306  -0.045334  -3.344400  -3.391040  10.186900  -0.000000   0.000000   0.000000   0.695709   1.676690  -4.027180   1.224940   6.237800   4.621050  -4.834160  -3.333770   1.605760  -0.000000   0.000000  -0.000000
 -0.573856  89.500500  -0.659621  -2.385820  -4.344360  -2.787460   0.999640   3.343500   0.372798   1.982470   6.692950   0.688673   1.504300  -0.943547   0.024151   2.473610  -1.909530   7.481110  -6.067760   2.746070  -1.471270 -69.548600  17.890100  -7.089910  -2.905370  -5.531450 -12.007600   4.709890  -7.837270  12.323800  40.794000  27.893900 -65.631300 -21.871600  -0.000270  -0.000031  -5.935810   0.013217  -0.001162 -31.250600   8.290660 -13.365100 -26.364900  -0.004518   0.002883 -18.455400   0.000090   0.003095 -28.541600   2.222530  -4.078620 -37.675400  -0.000158   0.002848 -25.091900  -0.000786   0.001776 -28.752300   0.147375  -0.268624 -40.257700  -0.000482   0.005689 -26.812000  -0.001377   0.003445 -36.895200  -0.224826   0.299667 -55.343800  -0.004512   0.002493 -36.858900  -0.009036   0.000088   7.550150  -0.047022  12.351800  69.819600  16.108600  -0.118246   1.148760  -0.616292   6.471130  -8.419620  -8.430490  -0.825726 -32.503600  36.095900  72.291900  41.507900  -0.000868   0.000818  16.807300   0.001402   0.003229  33.251900   6.169070   9.305310  27.617100   0.001113  -0.000764  19.331900   0.010063  -0.011806  28.636300   1.765770   3.227240  38.819000  -0.005951   0.010129  25.853500  -0.001502   0.005824  32.720500   1.974990   3.069770  49.159200   0.000751  -0.001040  32.740100   0.003985  -0.000859  47.359400  -3.515310  -3.232690  71.188000  -0.001013  -0.001981  47.411200  -0.000802  -0.001074   2.807740   7.446520   1.307860   1.072250   0.425322  -0.046249  -3.344540  -3.378030  10.181600  -0.000000   0.000000  -0.000000   0.696063   1.660340  -4.019270   1.225160   6.263900   4.603980  -4.834400  -3.333540   1.602650   0.000000   0.000000   0.000000
 -0.571195  89.500500  -0.663168  -2.385080  -4.354760  -2.770320   1.004430   3.343350   0.377973   1.991830   6.692760   0.698852   1.514640  -0.966467   0.024267   2.490460  -1.955800   7.418340  -6.074820   2.741530  -1.446120 -69.573200  17.916800  -7.079810  -2.897540  -5.544830 -11.986300   4.708170  -7.829580  12.339100  40.810300  27.925900 -65.648200 -21.871900  -0.000270  -0.000061  -5.935970   0.013318  -0.001173 -31.243700   8.288350 -13.363800 -26.359000  -0.004597   0.002878 -18.451300   0.000000   0.003161 -28.540700   2.228320  -4.089450 -37.663300  -0.000064   0.002868 -25.083800  -0.000732   0.001810 -28.752200   0.155705  -0.283819 -40.237300  -0.000423   0.005818 -26.798100  -0.001341   0.003669 -36.878700  -0.219489   0.293064 -55.319000  -0.004445   0.002534 -36.842400  -0.009163   0.000145   7.579950  -0.051532  12.391100  69.828600  16.130700  -0.130628   1.177080  -0.693886   6.338260  -8.364660  -8.377080  -0.825694 -32.514700  36.105600  72.307400  41.491700  -0.000846   0.000794  16.791600   0.001401   0.003233  33.242000   6.198770   9.355060  27.613400   0.001101  -0.000743  19.329400   0.010059  -0.011821  28.633500   1.797400   3.287440  38.822000  -0.005923   0.010124  25.855500  -0.001512   0.005802  32.725400   2.018490   3.137080  49.171000   0.000767  -0.001072  32.747900   0.003942  -0.000878  47.359900  -3.516080  -3.232280  71.188800  -0.000989  -0.002015  47.411700  -0.000822  -0.001095   2.807560   7.465670   1.305570   1.072070   0.404338  -0.049876  -3.345020  -3.365080  10.170400   0.000000   0.000000   0.000000   0.696417   1.643990  -4.011180   1.225580   6.290010   4.585360  -4.834890  -3.333330   1.595210  -0.000000   0.000000   0.000000
